<svg xmlns="http://www.w3.org/2000/svg" viewBox="0 0 512 512"><path fill="#d80027" d="M0 0h512v512H0z"/><path fill="#ffda44" d="M140.1 155.8l22.1 68h71.5l-57.8 42.1 22.1 68-57.9-42-57.9 42 22.1-68-57.8-42.1h71.5zm163.4 240.7l-16.9-20.8-25 9.7 14.5-22.5-16.9-20.9 25.9 6.9 14.6-22.5 1.4 26.8 26 6.9-25.1 9.6z"/><path fill="#ffda44" d="M291.6 346.4l-14.6 22.5-26-7 16.9 20.9-14.6 22.5 25.1-9.7 16.9 20.9-1.4-26.8 25.1-9.7-25.9-6.9zm-70.7-68.9l-10.2 25.6-26.7-2.3 19 18.7-10.2 25.6 23.4-13.7 19 18.8-5.7-26.1 23.4-13.8-26.7-2.2zm65.5-48.1l-2 27.3-24.7 10.8 24.8 10.4-2 27.3 15.8-22.7 24.8 10.4-12.3-23.8 15.9-22.7-24.7 10.8zm-76.2-48.4l4.4 27-21.6 16.8 27-2.7 4.3 27 7.9-26 27-2.7-22.8-14.9 7.9-26-21.6 16.9zm37.7-67.8L239 139l-4.9 27.2 15.1-22.7 22 15-10-25.4 15-22.7-24.6 10.7-10-25.3-4.9 27zm216.9 247.3l-22.1-15.5-12.2 24.1-3-26.9-22.2-15.5 24.3-11.5-3-26.9 17.7 20.7 24.2-11.5-12.1 24.1z"/></svg>