<svg xmlns="http://www.w3.org/2000/svg" viewBox="0 0 512 512"><path fill="#f0f0f0" d="M0 0h512v512H0z"/><path fill="#0052b4" d="M345.1 256c0 49.2-39.9 89.1-89.1 89.1-49.2 0-89.1-39.9-89.1-89.1 0-49.2 39.9-89.1 89.1-89.1 49.2 0 89.1 39.9 89.1 89.1z"/><path fill="#d80027" d="M345.1 256c0-49.2-39.9-89.1-89.1-89.1-49.2 0-89.1 39.9-89.1 89.1"/><path d="M93.9 144.7l16.3 22.3L131 155l-13.2 24.4 16.3 22.3-26.7-3.8-13.3 24.4L89 201.2l-26.7-3.7 20.8-15.9zm0 222.6l16.3-22.3L131 357l-13.2-24.5 16.3-22.3-26.7 3.8-13.3-24.4-5 21.1-26.7 3.7 20.8 15.9zm324.2-222.6l-16.3 22.3L381 155l13.2 24.4-16.3 22.3 26.7-3.8 13.3 24.4 5-21.1 26.7-3.7-20.8-15.9zm0 222.6l-16.3-22.3L381 357l13.2-24.5-16.3-22.3 26.7 3.8 13.3-24.4 5 21.1 26.7 3.7-20.8 15.9z"/></svg>